# xmcd
#
# Track frame offsets:
#	150
#	12869
#	30486
#	43368
#	60091
#	72277
#	88133
#	104175
#	118050
#	134355
#
# Disc length: 1950 seconds
#
# Revision: 2
# Processed by: cddbd v1.5.2PL0 Copyright (c) Steve Scherf et al.
# Submitted via: EasyCDDAExtractor 16.0.1.1
#
DISCID=8a079c0a
DTITLE=Deryl Dodd
DYEAR=1998
DGENRE=Country
TTITLE0=It's Only Cause Your Lonely
TTITLE1=Best I Ever Had
TTITLE2=Bad For Good
TTITLE3=A Bitter End
TTITLE4=John Roland Wood
TTITLE5=30 - 30
TTITLE6=I Thought I'd Heard It All
TTITLE7=Good Idea Tomorrow
TTITLE8=On Any Given Day
TTITLE9=Somewhere Down The Road
EXTD=
EXTT0=
EXTT1=
EXTT2=
EXTT3=
EXTT4=
EXTT5=
EXTT6=
EXTT7=
EXTT8=
EXTT9=
PLAYORDER=
